<?xml version="1.0" standalone="no"?>
<!DOCTYPE svg PUBLIC "-//W3C//DTD SVG 20010904//EN"
 "http://www.w3.org/TR/2001/REC-SVG-20010904/DTD/svg10.dtd">
<svg version="1.0" xmlns="http://www.w3.org/2000/svg"
 width="1200.000000pt" height="800.000000pt" viewBox="0 0 1200.000000 800.000000"
 preserveAspectRatio="xMidYMid meet">

<g transform="translate(0.000000,800.000000) scale(0.100000,-0.100000)"
fill="#000000" stroke="none">
<path d="M0 4000 l0 -4000 6000 0 6000 0 0 4000 0 4000 -6000 0 -6000 0 0
-4000z m6208 1989 c388 -42 772 -203 1062 -444 91 -76 249 -238 311 -320 568
-743 556 -1761 -28 -2485 -72 -89 -243 -257 -328 -321 -539 -412 -1227 -528
-1864 -313 -285 96 -527 244 -745 454 -182 176 -300 337 -412 563 -311 628
-264 1379 123 1972 147 225 355 432 578 578 262 170 570 282 875 316 110 12
317 13 428 0z"/>
<path d="M5830 5490 c-349 -43 -657 -196 -901 -447 -246 -252 -383 -546 -419
-897 -45 -435 107 -868 418 -1188 221 -227 500 -376 812 -434 130 -24 392 -24
515 -1 324 63 575 195 804 424 68 68 121 126 118 129 -2 3 -35 -17 -71 -45
-325 -242 -773 -297 -1160 -142 -292 117 -546 373 -661 665 -62 159 -78 246
-79 436 -1 184 5 227 51 375 87 279 286 525 544 676 285 166 657 204 971 99
134 -45 300 -135 375 -203 13 -11 26 -18 29 -14 14 13 -242 254 -335 316 -176
116 -376 198 -581 236 -104 19 -328 27 -430 15z"/>
<path d="M6120 4527 l0 -327 -300 -97 c-165 -54 -300 -100 -300 -103 0 -3 135
-49 300 -103 l300 -97 2 -325 3 -325 189 260 c103 143 193 260 198 260 5 0
142 -43 304 -96 163 -53 297 -95 298 -93 2 2 -79 118 -180 257 -101 139 -184
257 -184 262 0 5 83 123 184 262 101 139 182 255 180 257 -1 2 -135 -40 -298
-93 -162 -53 -299 -96 -304 -96 -5 0 -92 114 -192 253 -101 138 -187 256 -192
262 -4 5 -8 -138 -8 -318z"/>
</g>
</svg>
